<?xml version="1.0" standalone="no"?>
<!DOCTYPE svg PUBLIC "-//W3C//DTD SVG 20010904//EN"
 "http://www.w3.org/TR/2001/REC-SVG-20010904/DTD/svg10.dtd">
<svg version="1.0" xmlns="http://www.w3.org/2000/svg"
 width="150.000000pt" height="150.000000pt" viewBox="0 0 150.000000 150.000000"
 preserveAspectRatio="xMidYMid meet">
<metadata>
Created by potrace 1.11, written by Peter Selinger 2001-2013
</metadata>
<g transform="translate(0.000000,150.000000) scale(0.100000,-0.100000)"
fill="#000000" stroke="none">
<path d="M709 1491 c-25 -4 -54 -14 -63 -24 -10 -9 -22 -15 -27 -12 -8 6 -13
-8 -10 -27 0 -4 -17 -22 -39 -39 -22 -18 -37 -36 -34 -40 3 -5 0 -18 -6 -30
-9 -17 -8 -23 6 -33 9 -7 14 -18 10 -24 -11 -18 17 -93 47 -125 33 -35 30 -72
-6 -86 -49 -19 -94 -31 -113 -31 -11 0 -29 -7 -40 -16 -18 -15 -18 -15 5 -10
13 3 39 -1 56 -9 39 -16 60 -68 51 -120 -10 -53 -24 -50 -20 3 l4 47 -15 -44
c-16 -50 -37 -79 -28 -40 5 23 4 22 -21 -6 -20 -22 -24 -24 -17 -8 14 28 14
73 1 73 -5 0 -10 -18 -10 -41 0 -33 -6 -46 -37 -75 l-38 -35 33 6 c18 3 32 1
32 -5 0 -5 8 -9 18 -8 36 3 63 -2 57 -11 -3 -5 0 -13 6 -17 8 -4 9 -3 5 4 -11
19 13 14 50 -9 19 -11 34 -22 34 -23 0 -2 -21 -3 -47 -4 -27 0 -72 -2 -101 -3
-40 -2 -56 1 -70 15 -16 17 -16 18 8 12 24 -6 24 -6 -3 9 -16 9 -34 14 -40 11
-7 -2 -4 -5 6 -5 17 -1 17 -3 -3 -31 -27 -37 -44 -38 -80 -1 -16 16 -32 26
-36 22 -4 -3 -4 2 -1 11 5 15 2 16 -20 7 -31 -11 -39 -7 -18 11 18 15 20 31 2
26 -6 -1 -9 -1 -4 1 4 3 4 9 1 15 -4 6 2 8 17 4 13 -3 18 -3 12 0 -7 3 -13 10
-13 16 0 15 43 -1 62 -24 10 -11 18 -15 18 -9 0 6 -9 20 -20 31 -11 11 -20 23
-19 26 0 3 -3 9 -7 12 -4 4 -4 1 0 -5 5 -9 -1 -11 -22 -7 -20 4 -34 1 -45 -11
-10 -9 -23 -15 -29 -13 -7 3 0 13 17 24 17 10 32 21 35 25 12 15 50 28 64 23
24 -9 19 -23 -6 -17 -21 4 -21 3 -5 -7 10 -7 27 -26 38 -43 18 -28 20 -29 13
-7 -3 14 -11 28 -16 31 -5 3 -6 13 -3 21 4 9 2 19 -4 23 -16 9 -14 22 4 29 18
7 91 -55 100 -86 4 -11 9 -17 11 -15 3 3 -1 20 -9 39 -18 43 -74 91 -98 85
-10 -3 -17 0 -16 6 1 6 -6 13 -16 15 -10 2 -17 -2 -17 -12 0 -13 -5 -14 -26
-6 -33 13 -34 13 -34 -5 0 -8 -9 -15 -19 -15 -11 0 -29 -12 -40 -26 -12 -15
-25 -23 -32 -18 -8 4 -9 3 -5 -4 4 -7 2 -12 -4 -12 -6 0 -27 -12 -46 -27 l-34
-28 0 -392 0 -393 299 0 c189 0 302 4 306 10 3 6 18 10 33 9 24 0 25 -1 7 -8
-11 -5 177 -9 418 -10 259 -1 437 2 437 7 0 5 -13 12 -30 16 -22 4 -30 11 -30
26 0 60 -46 101 -215 190 -201 106 -273 153 -277 181 -4 25 -2 26 81 38 48 7
111 15 141 18 30 2 64 9 75 14 12 6 38 6 68 0 42 -8 54 -6 93 15 28 15 54 22
68 18 21 -5 23 -3 18 22 -4 23 -6 25 -12 10 -5 -16 -7 -16 -19 -2 -11 13 -9
17 13 27 14 7 26 16 26 21 0 5 -4 6 -10 3 -5 -3 -10 3 -10 14 0 24 -18 28 -26
7 -5 -12 -10 -12 -34 0 -25 13 -34 12 -80 -6 -55 -21 -222 -50 -292 -50 -60 0
-88 9 -81 26 3 9 -1 14 -12 14 -12 0 -15 5 -10 20 4 11 2 20 -4 20 -14 0 -14
33 0 47 6 6 9 17 6 25 -3 7 -13 -5 -22 -29 -10 -24 -23 -40 -29 -37 -6 3 -2
-2 8 -10 12 -9 14 -16 7 -16 -8 0 -7 -5 4 -16 9 -9 15 -26 13 -38 -2 -17 -13
-22 -61 -29 -54 -7 -60 -6 -89 18 -28 24 -36 25 -87 19 -31 -4 -57 -11 -59
-15 -2 -5 -8 -9 -14 -9 -28 0 17 28 53 33 23 3 47 11 53 18 8 9 4 10 -19 6
-16 -3 -37 -8 -46 -12 -9 -3 -23 0 -31 8 -8 8 -23 17 -34 20 -10 2 -2 5 19 6
27 1 37 5 37 17 0 14 2 14 16 3 15 -12 14 -14 -5 -23 -22 -9 -29 -26 -11 -26
6 0 10 5 10 10 0 6 9 10 20 10 14 0 18 5 13 17 -5 12 -2 15 10 10 9 -3 17 -3
17 1 0 11 51 32 76 32 13 0 25 4 28 8 2 4 -10 6 -28 4 -24 -3 -35 1 -40 13
-11 30 6 126 28 154 34 42 49 77 41 100 -7 25 10 29 19 5 4 -9 9 -14 13 -11 3
4 0 13 -6 21 -10 12 -9 26 5 68 20 61 29 121 14 98 -10 -17 -15 -14 -24 18 -6
16 -3 22 9 22 8 0 20 12 26 27 7 20 12 24 18 14 5 -7 10 -9 13 -5 5 11 1 105
-8 162 -6 40 -8 43 -50 53 -26 7 -49 20 -59 35 -8 13 -21 23 -28 23 -6 -1 -33
-5 -58 -8z m158 -173 c6 -7 13 -25 17 -40 5 -21 2 -28 -14 -33 -29 -9 -65 4
-51 18 6 6 11 21 11 32 0 34 19 46 37 23z m-24 -225 c2 -5 1 -19 -4 -33 -4
-16 -7 -19 -8 -7 -1 9 -5 17 -9 17 -5 0 -9 7 -9 15 0 15 23 21 30 8z m-264
-134 c6 -18 12 -48 12 -68 1 -35 2 -35 17 16 14 49 17 52 41 46 14 -3 31 -9
36 -13 22 -16 65 -21 65 -7 0 7 6 22 14 32 12 16 16 17 30 6 24 -20 19 -41
-12 -54 -16 -7 -27 -18 -25 -24 6 -18 -7 -16 -29 4 -18 16 -18 16 -12 0 3 -9
10 -17 14 -17 11 0 21 -30 14 -41 -3 -6 -21 14 -40 43 -42 67 -43 56 -3 -25
23 -45 32 -77 33 -116 1 -53 0 -55 -32 -63 -27 -7 -42 -4 -85 19 -58 32 -54
16 -46 185 l4 78 -35 30 -35 31 31 -15 c20 -10 36 -28 43 -47z m-459 -209
c-13 -9 -13 -11 0 -20 13 -8 13 -10 -1 -10 -9 0 -18 3 -22 6 -10 10 5 34 22
34 14 0 14 -2 1 -10z m45 -20 c3 -6 -1 -7 -9 -4 -18 7 -21 14 -7 14 6 0 13 -4
16 -10z m442 -125 c4 -14 -14 -41 -23 -32 -4 3 -1 13 6 22 10 12 10 15 -4 15
-9 0 -16 -4 -16 -10 0 -5 -5 -10 -11 -10 -8 0 -7 5 1 15 14 17 41 17 47 0z
m833 -37 c0 -5 -5 -6 -12 -2 -8 5 -9 2 -5 -9 8 -22 4 -21 -18 3 -18 20 -18 21
0 14 15 -6 17 -4 12 11 -6 15 -5 16 8 5 8 -7 15 -17 15 -22z m-743 -4 c-3 -3
-12 -4 -19 -1 -8 3 -5 6 6 6 11 1 17 -2 13 -5z m63 -4 c8 -5 11 -10 5 -10 -5
0 -17 5 -25 10 -8 5 -10 10 -5 10 6 0 17 -5 25 -10z m-12 -22 c12 0 22 -4 22
-9 0 -9 -13 -12 -42 -10 -32 4 -19 -17 30 -50 59 -40 56 -38 50 -44 -3 -3 -19
6 -36 20 -21 18 -33 22 -38 14 -5 -8 -9 -7 -16 5 -5 9 -17 16 -27 16 -31 0
-54 24 -46 49 6 21 11 22 44 16 20 -4 46 -7 59 -7z m649 -10 c-3 -8 -6 -5 -6
6 -1 11 2 17 5 13 3 -3 4 -12 1 -19z m-777 -8 c0 -5 -2 -10 -4 -10 -3 0 -8 5
-11 10 -3 6 -1 10 4 10 6 0 11 -4 11 -10z m318 -100 c5 -13 3 -13 -11 -1 -14
11 -18 11 -23 -3 -7 -18 -34 -22 -34 -5 0 5 -6 7 -12 3 -10 -5 -10 -3 0 7 11
11 14 12 21 1 7 -11 10 -10 15 3 7 20 37 16 44 -5z m-144 -30 c5 0 7 -3 4 -6
-8 -7 -58 25 -58 38 0 5 10 0 22 -12 12 -11 26 -20 32 -20z m151 -10 c3 -5 1
-10 -4 -10 -6 0 -11 5 -11 10 0 6 2 10 4 10 3 0 8 -4 11 -10z m-42 -28 c-4
-16 -2 -23 4 -19 6 4 13 -3 16 -14 3 -12 3 -18 0 -15 -3 3 -11 -2 -18 -10 -10
-14 -25 -15 -106 -9 -72 6 -87 10 -66 16 16 4 35 5 42 3 7 -3 16 -1 20 5 3 6
14 11 23 10 11 0 12 -3 5 -6 -28 -11 -10 -24 29 -21 32 2 44 8 46 22 3 11 0
16 -7 11 -6 -3 -8 -11 -5 -17 4 -5 -4 -4 -17 3 l-24 14 23 3 c22 3 32 32 11
32 -5 0 -8 4 -5 8 3 5 12 9 20 9 12 0 14 -7 9 -25z m35 -23 c-3 -8 -7 -3 -11
10 -4 17 -3 21 5 13 5 -5 8 -16 6 -23z m-353 -129 c3 -5 1 -10 -4 -10 -6 0
-11 5 -11 10 0 6 2 10 4 10 3 0 8 -4 11 -10z m40 -20 c-10 -11 -23 -20 -28
-20 -6 0 0 9 13 20 13 11 25 20 28 20 3 0 -3 -9 -13 -20z"/>
<path d="M640 898 c0 -23 3 -29 9 -19 8 12 4 51 -5 51 -2 0 -4 -15 -4 -32z"/>
<path d="M298 933 c7 -3 16 -2 19 1 4 3 -2 6 -13 5 -11 0 -14 -3 -6 -6z"/>
<path d="M320 729 c0 -5 5 -7 10 -4 6 3 10 8 10 11 0 2 -4 4 -10 4 -5 0 -10
-5 -10 -11z"/>
<path d="M423 713 c20 -5 23 -19 5 -26 -8 -2 -9 -8 -4 -13 5 -5 11 -4 13 4 3
6 12 12 21 12 14 0 14 2 3 9 -11 7 -11 9 0 14 8 3 -2 5 -21 5 -19 0 -27 -2
-17 -5z"/>
<path d="M768 593 c7 -3 16 -2 19 1 4 3 -2 6 -13 5 -11 0 -14 -3 -6 -6z"/>
</g>
</svg>
